<svg width="40" height="40" viewBox="0 0 40 40" fill="none" xmlns="http://www.w3.org/2000/svg">
<rect width="40" height="40" rx="4" fill="white"/>
<path d="M14.4324 22.0862L13.7362 24.6852L11.1918 24.739C10.4313 23.3286 10 21.7148 10 20C10 18.3418 10.4033 16.778 11.1181 15.4011H11.1187L13.384 15.8164L14.3763 18.0681C14.1686 18.6736 14.0554 19.3236 14.0554 20C14.0555 20.7341 14.1885 21.4374 14.4324 22.0862Z" fill="#FBBB00"/>
<path d="M29.8252 18.132C29.94 18.7369 29.9999 19.3616 29.9999 20.0001C29.9999 20.716 29.9246 21.4144 29.7812 22.088C29.2944 24.3803 28.0224 26.382 26.2604 27.7985L26.2598 27.7979L23.4065 27.6523L23.0027 25.1314C24.1719 24.4457 25.0857 23.3726 25.567 22.088H20.2197V18.132H25.645H29.8252Z" fill="#518EF8"/>
<path d="M26.2595 27.7979L26.2601 27.7984C24.5464 29.1759 22.3694 30.0001 19.9996 30.0001C16.1914 30.0001 12.8804 27.8715 11.1914 24.7391L14.4321 22.0863C15.2766 24.3402 17.4507 25.9446 19.9996 25.9446C21.0952 25.9446 22.1216 25.6484 23.0024 25.1314L26.2595 27.7979Z" fill="#28B446"/>
<path d="M26.383 12.3022L23.1434 14.9544C22.2319 14.3846 21.1544 14.0555 20 14.0555C17.3934 14.0555 15.1786 15.7335 14.3764 18.0681L11.1187 15.4011H11.1182C12.7825 12.1923 16.1352 10 20 10C22.4264 10 24.6511 10.8643 26.383 12.3022Z" fill="#F14336"/>
</svg>
